<?xml version="1.0" encoding="utf-8" ?>
<svg baseProfile="tiny" height="2048" version="1.2" width="1614" xmlns="http://www.w3.org/2000/svg" xmlns:ev="http://www.w3.org/2001/xml-events" xmlns:xlink="http://www.w3.org/1999/xlink"><defs /><path d="M 819,582 L 818,583 L 793,583 L 792,584 L 781,584 L 780,585 L 763,585 L 762,586 L 755,586 L 754,587 L 745,587 L 744,588 L 738,588 L 737,589 L 732,589 L 731,590 L 726,590 L 725,591 L 722,591 L 721,592 L 717,592 L 716,593 L 714,593 L 713,594 L 709,594 L 708,595 L 707,595 L 706,596 L 704,596 L 703,597 L 700,597 L 699,598 L 698,598 L 697,599 L 695,599 L 694,600 L 692,600 L 691,601 L 690,601 L 689,602 L 688,602 L 687,603 L 685,603 L 684,604 L 683,604 L 682,605 L 681,605 L 680,606 L 679,606 L 678,607 L 677,607 L 676,608 L 675,608 L 674,609 L 673,609 L 672,610 L 671,610 L 669,612 L 667,612 L 665,614 L 664,614 L 662,616 L 661,616 L 659,618 L 658,618 L 655,621 L 654,621 L 652,623 L 651,623 L 646,628 L 645,628 L 630,643 L 630,644 L 625,649 L 625,650 L 623,652 L 623,653 L 620,656 L 620,657 L 618,659 L 618,660 L 617,661 L 617,662 L 615,664 L 615,665 L 614,666 L 614,667 L 612,669 L 612,671 L 610,673 L 610,675 L 608,677 L 608,679 L 607,680 L 607,681 L 606,682 L 606,684 L 605,685 L 605,687 L 604,688 L 604,689 L 603,690 L 603,693 L 602,694 L 602,695 L 601,696 L 601,699 L 600,700 L 600,702 L 599,703 L 599,707 L 598,708 L 598,712 L 597,713 L 597,716 L 596,717 L 596,725 L 595,726 L 595,733 L 594,734 L 594,758 L 595,759 L 595,766 L 596,767 L 596,774 L 597,775 L 597,778 L 598,779 L 598,783 L 599,784 L 599,787 L 600,788 L 600,790 L 601,791 L 601,794 L 602,795 L 602,796 L 603,797 L 603,800 L 604,801 L 604,803 L 605,804 L 605,806 L 607,808 L 607,809 L 608,810 L 608,812 L 609,813 L 609,814 L 610,815 L 610,816 L 611,817 L 611,818 L 612,819 L 612,820 L 614,822 L 614,824 L 617,827 L 617,828 L 618,829 L 618,830 L 619,831 L 619,832 L 620,832 L 621,833 L 621,834 L 623,836 L 623,837 L 626,840 L 626,841 L 631,846 L 631,847 L 643,859 L 644,859 L 651,866 L 652,866 L 654,868 L 655,868 L 657,870 L 658,870 L 661,873 L 662,873 L 664,875 L 665,875 L 667,877 L 669,877 L 671,879 L 672,879 L 673,880 L 674,880 L 675,881 L 676,881 L 678,883 L 679,883 L 680,884 L 681,884 L 682,885 L 683,885 L 684,886 L 686,886 L 687,887 L 688,887 L 689,888 L 691,888 L 693,890 L 696,890 L 697,891 L 698,891 L 699,892 L 700,892 L 701,893 L 703,893 L 704,894 L 706,894 L 707,895 L 710,895 L 711,896 L 712,896 L 713,897 L 717,897 L 718,898 L 720,898 L 721,899 L 725,899 L 726,900 L 729,900 L 730,901 L 733,901 L 734,902 L 741,902 L 742,903 L 746,903 L 747,904 L 757,904 L 758,905 L 763,905 L 764,906 L 780,906 L 781,907 L 793,907 L 794,908 L 897,908 L 898,909 L 921,909 L 922,910 L 932,910 L 933,911 L 945,911 L 946,912 L 951,912 L 952,913 L 961,913 L 962,914 L 964,914 L 965,915 L 972,915 L 973,916 L 975,916 L 976,917 L 981,917 L 982,918 L 984,918 L 985,919 L 987,919 L 988,920 L 992,920 L 993,921 L 995,921 L 996,922 L 999,922 L 1000,923 L 1002,923 L 1003,924 L 1006,924 L 1007,925 L 1008,925 L 1009,926 L 1012,926 L 1013,927 L 1014,927 L 1015,928 L 1017,928 L 1018,929 L 1019,929 L 1020,930 L 1021,930 L 1022,931 L 1024,931 L 1025,932 L 1026,932 L 1027,933 L 1029,933 L 1030,934 L 1031,934 L 1032,935 L 1034,935 L 1036,937 L 1038,937 L 1039,938 L 1040,938 L 1041,939 L 1042,939 L 1043,940 L 1044,940 L 1045,941 L 1046,941 L 1047,942 L 1048,942 L 1050,944 L 1052,944 L 1054,946 L 1055,946 L 1056,947 L 1057,947 L 1058,948 L 1059,948 L 1061,950 L 1062,950 L 1063,951 L 1064,951 L 1066,953 L 1067,953 L 1069,955 L 1070,955 L 1072,957 L 1073,957 L 1074,958 L 1075,958 L 1079,962 L 1080,962 L 1082,964 L 1083,964 L 1087,968 L 1088,968 L 1090,970 L 1091,970 L 1094,973 L 1095,973 L 1096,974 L 1096,975 L 1097,975 L 1104,982 L 1105,982 L 1125,1002 L 1125,1003 L 1132,1010 L 1132,1011 L 1133,1011 L 1134,1012 L 1134,1013 L 1138,1017 L 1138,1018 L 1141,1021 L 1141,1022 L 1145,1026 L 1145,1027 L 1148,1030 L 1148,1031 L 1151,1034 L 1151,1035 L 1152,1036 L 1152,1037 L 1155,1040 L 1155,1041 L 1157,1043 L 1157,1044 L 1159,1046 L 1159,1047 L 1161,1049 L 1161,1051 L 1163,1053 L 1163,1054 L 1165,1056 L 1165,1057 L 1166,1058 L 1166,1059 L 1168,1061 L 1168,1062 L 1169,1063 L 1169,1064 L 1170,1065 L 1170,1066 L 1172,1068 L 1172,1070 L 1173,1071 L 1173,1072 L 1175,1074 L 1175,1076 L 1177,1078 L 1177,1080 L 1179,1082 L 1179,1084 L 1180,1085 L 1180,1086 L 1181,1087 L 1181,1088 L 1182,1089 L 1182,1091 L 1183,1092 L 1183,1093 L 1184,1094 L 1184,1096 L 1186,1098 L 1186,1101 L 1187,1102 L 1187,1103 L 1188,1104 L 1188,1106 L 1189,1107 L 1189,1108 L 1190,1109 L 1190,1112 L 1191,1113 L 1191,1114 L 1192,1115 L 1192,1117 L 1193,1118 L 1193,1121 L 1194,1122 L 1194,1123 L 1195,1124 L 1195,1127 L 1196,1128 L 1196,1130 L 1197,1131 L 1197,1135 L 1198,1136 L 1198,1137 L 1199,1138 L 1199,1142 L 1200,1143 L 1200,1146 L 1201,1147 L 1201,1151 L 1202,1152 L 1202,1155 L 1203,1156 L 1203,1159 L 1204,1160 L 1204,1166 L 1205,1167 L 1205,1171 L 1206,1172 L 1206,1179 L 1207,1180 L 1207,1185 L 1208,1186 L 1208,1197 L 1209,1198 L 1209,1205 L 1210,1206 L 1210,1222 L 1211,1223 L 1211,1268 L 1210,1269 L 1210,1287 L 1209,1288 L 1209,1296 L 1208,1297 L 1208,1309 L 1207,1310 L 1207,1314 L 1206,1315 L 1206,1323 L 1205,1324 L 1205,1327 L 1204,1328 L 1204,1334 L 1203,1335 L 1203,1338 L 1202,1339 L 1202,1342 L 1201,1343 L 1201,1347 L 1200,1348 L 1200,1350 L 1199,1351 L 1199,1355 L 1198,1356 L 1198,1358 L 1197,1359 L 1197,1362 L 1196,1363 L 1196,1365 L 1195,1366 L 1195,1369 L 1194,1370 L 1194,1371 L 1193,1372 L 1193,1375 L 1192,1376 L 1192,1378 L 1191,1379 L 1191,1380 L 1190,1381 L 1190,1384 L 1188,1386 L 1188,1389 L 1187,1390 L 1187,1391 L 1186,1392 L 1186,1395 L 1184,1397 L 1184,1399 L 1183,1400 L 1183,1401 L 1182,1402 L 1182,1404 L 1181,1405 L 1181,1406 L 1180,1407 L 1180,1408 L 1179,1409 L 1179,1411 L 1177,1413 L 1177,1416 L 1175,1418 L 1175,1420 L 1173,1422 L 1173,1423 L 1172,1424 L 1172,1425 L 1171,1426 L 1171,1427 L 1170,1428 L 1170,1429 L 1169,1430 L 1169,1431 L 1168,1432 L 1168,1433 L 1166,1435 L 1166,1437 L 1164,1439 L 1164,1440 L 1163,1441 L 1163,1442 L 1161,1444 L 1161,1445 L 1160,1446 L 1160,1447 L 1159,1448 L 1159,1449 L 1157,1451 L 1157,1452 L 1156,1453 L 1156,1454 L 1154,1456 L 1154,1457 L 1152,1459 L 1152,1460 L 1150,1462 L 1150,1463 L 1148,1465 L 1148,1466 L 1147,1467 L 1147,1468 L 1144,1471 L 1144,1472 L 1141,1475 L 1141,1476 L 1139,1478 L 1139,1479 L 1136,1482 L 1136,1483 L 1132,1487 L 1132,1488 L 1129,1491 L 1129,1492 L 1123,1498 L 1123,1499 L 1122,1500 L 1121,1500 L 1121,1501 L 1116,1506 L 1116,1507 L 1092,1531 L 1091,1531 L 1086,1536 L 1085,1536 L 1085,1537 L 1084,1538 L 1083,1538 L 1083,1539 L 1082,1540 L 1081,1540 L 1077,1544 L 1076,1544 L 1073,1547 L 1072,1547 L 1068,1551 L 1067,1551 L 1065,1553 L 1064,1553 L 1060,1557 L 1059,1557 L 1058,1558 L 1057,1558 L 1054,1561 L 1053,1561 L 1052,1562 L 1051,1562 L 1048,1565 L 1047,1565 L 1045,1567 L 1043,1567 L 1040,1570 L 1039,1570 L 1038,1571 L 1037,1571 L 1035,1573 L 1034,1573 L 1033,1574 L 1032,1574 L 1030,1576 L 1028,1576 L 1026,1578 L 1025,1578 L 1024,1579 L 1023,1579 L 1022,1580 L 1021,1580 L 1020,1581 L 1019,1581 L 1018,1582 L 1017,1582 L 1016,1583 L 1015,1583 L 1014,1584 L 1013,1584 L 1012,1585 L 1011,1585 L 1010,1586 L 1009,1586 L 1008,1587 L 1006,1587 L 1004,1589 L 1001,1589 L 999,1591 L 997,1591 L 996,1592 L 995,1592 L 994,1593 L 993,1593 L 992,1594 L 989,1594 L 987,1596 L 984,1596 L 983,1597 L 982,1597 L 981,1598 L 978,1598 L 977,1599 L 976,1599 L 975,1600 L 973,1600 L 972,1601 L 969,1601 L 968,1602 L 967,1602 L 966,1603 L 962,1603 L 961,1604 L 959,1604 L 958,1605 L 954,1605 L 953,1606 L 951,1606 L 950,1607 L 945,1607 L 944,1608 L 942,1608 L 941,1609 L 937,1609 L 936,1610 L 931,1610 L 930,1611 L 927,1611 L 926,1612 L 920,1612 L 919,1613 L 914,1613 L 913,1614 L 906,1614 L 905,1615 L 901,1615 L 900,1616 L 891,1616 L 890,1617 L 885,1617 L 884,1618 L 875,1618 L 874,1619 L 873,1618 L 872,1619 L 866,1619 L 865,1620 L 858,1620 L 857,1621 L 840,1621 L 839,1622 L 830,1622 L 829,1623 L 804,1623 L 803,1624 L 787,1624 L 786,1625 L 734,1625 L 733,1626 L 698,1626 L 697,1627 L 624,1627 L 623,1628 L 416,1628 L 415,1627 L 328,1627 L 327,1628 L 326,1627 L 322,1627 L 322,1961 L 474,1961 L 475,1960 L 678,1960 L 679,1961 L 798,1961 L 799,1960 L 813,1960 L 814,1959 L 833,1959 L 834,1958 L 841,1958 L 842,1957 L 854,1957 L 855,1956 L 862,1956 L 863,1955 L 871,1955 L 872,1954 L 878,1954 L 879,1953 L 884,1953 L 885,1952 L 886,1953 L 887,1952 L 893,1952 L 894,1951 L 897,1951 L 898,1950 L 905,1950 L 906,1949 L 910,1949 L 911,1948 L 916,1948 L 917,1947 L 921,1947 L 922,1946 L 926,1946 L 927,1945 L 932,1945 L 933,1944 L 936,1944 L 937,1943 L 941,1943 L 942,1942 L 944,1942 L 945,1941 L 950,1941 L 951,1940 L 953,1940 L 954,1939 L 958,1939 L 959,1938 L 962,1938 L 963,1937 L 966,1937 L 967,1936 L 970,1936 L 971,1935 L 974,1935 L 975,1934 L 978,1934 L 979,1933 L 981,1933 L 982,1932 L 985,1932 L 986,1931 L 988,1931 L 989,1930 L 992,1930 L 993,1929 L 995,1929 L 996,1928 L 998,1928 L 999,1927 L 1002,1927 L 1003,1926 L 1005,1926 L 1006,1925 L 1008,1925 L 1009,1924 L 1011,1924 L 1012,1923 L 1014,1923 L 1015,1922 L 1017,1922 L 1018,1921 L 1021,1921 L 1022,1920 L 1023,1920 L 1024,1919 L 1027,1919 L 1028,1918 L 1029,1918 L 1030,1917 L 1032,1917 L 1033,1916 L 1035,1916 L 1036,1915 L 1037,1915 L 1038,1914 L 1040,1914 L 1041,1913 L 1043,1913 L 1044,1912 L 1046,1912 L 1047,1911 L 1048,1911 L 1049,1910 L 1051,1910 L 1052,1909 L 1053,1909 L 1054,1908 L 1056,1908 L 1057,1907 L 1058,1907 L 1059,1906 L 1061,1906 L 1062,1905 L 1064,1905 L 1066,1903 L 1068,1903 L 1069,1902 L 1070,1902 L 1071,1901 L 1073,1901 L 1074,1900 L 1075,1900 L 1076,1899 L 1078,1899 L 1079,1898 L 1080,1898 L 1081,1897 L 1082,1897 L 1083,1896 L 1084,1896 L 1085,1895 L 1086,1895 L 1087,1894 L 1089,1894 L 1090,1893 L 1091,1893 L 1092,1892 L 1093,1892 L 1094,1891 L 1095,1891 L 1096,1890 L 1098,1890 L 1099,1889 L 1100,1889 L 1102,1887 L 1104,1887 L 1105,1886 L 1106,1886 L 1107,1885 L 1108,1885 L 1109,1884 L 1110,1884 L 1111,1883 L 1112,1883 L 1113,1882 L 1114,1882 L 1115,1881 L 1116,1881 L 1117,1880 L 1118,1880 L 1119,1879 L 1120,1879 L 1121,1878 L 1122,1878 L 1124,1876 L 1126,1876 L 1128,1874 L 1129,1874 L 1130,1873 L 1131,1873 L 1132,1872 L 1133,1872 L 1134,1871 L 1135,1871 L 1136,1870 L 1137,1870 L 1139,1868 L 1140,1868 L 1141,1867 L 1142,1867 L 1143,1866 L 1144,1866 L 1145,1865 L 1146,1865 L 1148,1863 L 1150,1863 L 1152,1861 L 1153,1861 L 1155,1859 L 1156,1859 L 1157,1858 L 1158,1858 L 1160,1856 L 1161,1856 L 1162,1855 L 1163,1855 L 1164,1854 L 1165,1854 L 1167,1852 L 1168,1852 L 1169,1851 L 1170,1851 L 1172,1849 L 1173,1849 L 1175,1847 L 1176,1847 L 1178,1845 L 1179,1845 L 1180,1844 L 1181,1844 L 1183,1842 L 1184,1842 L 1186,1840 L 1187,1840 L 1189,1838 L 1190,1838 L 1192,1836 L 1193,1836 L 1194,1835 L 1195,1835 L 1198,1832 L 1199,1832 L 1201,1830 L 1202,1830 L 1205,1827 L 1206,1827 L 1207,1826 L 1208,1826 L 1211,1823 L 1212,1823 L 1214,1821 L 1215,1821 L 1218,1818 L 1219,1818 L 1221,1816 L 1222,1816 L 1225,1813 L 1226,1813 L 1230,1809 L 1231,1809 L 1234,1806 L 1235,1806 L 1237,1804 L 1238,1804 L 1242,1800 L 1243,1800 L 1247,1796 L 1248,1796 L 1252,1792 L 1253,1792 L 1257,1788 L 1258,1788 L 1264,1782 L 1265,1782 L 1270,1777 L 1271,1777 L 1277,1771 L 1278,1771 L 1278,1770 L 1279,1769 L 1280,1769 L 1285,1764 L 1286,1764 L 1299,1751 L 1300,1751 L 1300,1750 L 1301,1749 L 1302,1749 L 1303,1748 L 1303,1747 L 1304,1746 L 1305,1746 L 1334,1717 L 1334,1716 L 1335,1715 L 1336,1715 L 1336,1714 L 1337,1713 L 1338,1713 L 1338,1712 L 1349,1701 L 1349,1700 L 1350,1699 L 1351,1699 L 1351,1698 L 1358,1691 L 1358,1690 L 1365,1683 L 1365,1682 L 1372,1675 L 1372,1674 L 1377,1669 L 1377,1668 L 1382,1663 L 1382,1662 L 1386,1658 L 1386,1657 L 1390,1653 L 1390,1652 L 1392,1650 L 1392,1649 L 1396,1645 L 1396,1644 L 1399,1641 L 1399,1640 L 1401,1638 L 1401,1637 L 1404,1634 L 1404,1633 L 1407,1630 L 1407,1629 L 1409,1627 L 1409,1626 L 1412,1623 L 1412,1622 L 1414,1620 L 1414,1619 L 1416,1617 L 1416,1616 L 1418,1614 L 1418,1613 L 1419,1612 L 1419,1611 L 1421,1609 L 1421,1608 L 1423,1606 L 1423,1605 L 1425,1603 L 1425,1602 L 1427,1600 L 1427,1599 L 1428,1598 L 1428,1597 L 1430,1595 L 1430,1594 L 1432,1592 L 1432,1591 L 1433,1590 L 1433,1589 L 1435,1587 L 1435,1586 L 1436,1585 L 1436,1584 L 1437,1583 L 1437,1582 L 1439,1580 L 1439,1579 L 1440,1578 L 1440,1577 L 1441,1576 L 1441,1575 L 1443,1573 L 1443,1572 L 1444,1571 L 1444,1570 L 1446,1568 L 1446,1566 L 1448,1564 L 1448,1563 L 1449,1562 L 1449,1561 L 1450,1560 L 1450,1559 L 1451,1558 L 1451,1557 L 1452,1556 L 1452,1555 L 1454,1553 L 1454,1552 L 1455,1551 L 1455,1549 L 1457,1547 L 1457,1545 L 1459,1543 L 1459,1541 L 1461,1539 L 1461,1537 L 1462,1536 L 1462,1535 L 1463,1534 L 1463,1533 L 1464,1532 L 1464,1531 L 1465,1530 L 1465,1529 L 1466,1528 L 1466,1527 L 1467,1526 L 1467,1525 L 1468,1524 L 1468,1522 L 1469,1521 L 1469,1520 L 1470,1519 L 1470,1518 L 1471,1517 L 1471,1516 L 1472,1515 L 1472,1513 L 1473,1512 L 1473,1511 L 1474,1510 L 1474,1509 L 1475,1508 L 1475,1506 L 1476,1505 L 1476,1504 L 1477,1503 L 1477,1501 L 1478,1500 L 1478,1499 L 1479,1498 L 1479,1496 L 1480,1495 L 1480,1494 L 1481,1493 L 1481,1491 L 1482,1490 L 1482,1489 L 1483,1488 L 1483,1486 L 1484,1485 L 1484,1483 L 1485,1482 L 1485,1481 L 1486,1480 L 1486,1478 L 1487,1477 L 1487,1475 L 1488,1474 L 1488,1472 L 1489,1471 L 1489,1470 L 1490,1469 L 1490,1467 L 1491,1466 L 1491,1464 L 1492,1463 L 1492,1461 L 1493,1460 L 1493,1458 L 1494,1457 L 1494,1455 L 1495,1454 L 1495,1451 L 1496,1450 L 1496,1449 L 1497,1448 L 1497,1445 L 1498,1444 L 1498,1442 L 1499,1441 L 1499,1439 L 1500,1438 L 1500,1435 L 1501,1434 L 1501,1432 L 1502,1431 L 1502,1428 L 1503,1427 L 1503,1425 L 1504,1424 L 1504,1420 L 1505,1419 L 1505,1418 L 1506,1417 L 1506,1413 L 1507,1412 L 1507,1410 L 1508,1409 L 1508,1406 L 1509,1405 L 1509,1401 L 1510,1400 L 1510,1397 L 1511,1396 L 1511,1392 L 1512,1391 L 1512,1388 L 1513,1387 L 1513,1382 L 1514,1381 L 1514,1378 L 1515,1377 L 1515,1372 L 1516,1371 L 1516,1368 L 1517,1367 L 1517,1362 L 1518,1361 L 1518,1356 L 1519,1355 L 1519,1350 L 1520,1349 L 1520,1342 L 1521,1341 L 1521,1335 L 1522,1334 L 1522,1327 L 1523,1326 L 1523,1320 L 1524,1319 L 1524,1307 L 1525,1306 L 1525,1298 L 1526,1297 L 1526,1282 L 1527,1281 L 1527,1209 L 1526,1208 L 1526,1194 L 1525,1193 L 1525,1185 L 1524,1184 L 1524,1171 L 1523,1170 L 1523,1165 L 1522,1164 L 1522,1156 L 1521,1155 L 1521,1149 L 1520,1148 L 1520,1142 L 1519,1141 L 1519,1135 L 1518,1134 L 1518,1129 L 1517,1128 L 1517,1124 L 1516,1123 L 1516,1120 L 1515,1119 L 1515,1113 L 1514,1112 L 1514,1109 L 1513,1108 L 1513,1103 L 1512,1102 L 1512,1099 L 1511,1098 L 1511,1095 L 1510,1094 L 1510,1090 L 1509,1089 L 1509,1086 L 1508,1085 L 1508,1082 L 1507,1081 L 1507,1079 L 1506,1078 L 1506,1074 L 1505,1073 L 1505,1071 L 1504,1070 L 1504,1066 L 1503,1065 L 1503,1063 L 1502,1062 L 1502,1060 L 1501,1059 L 1501,1057 L 1500,1056 L 1500,1053 L 1499,1052 L 1499,1050 L 1498,1049 L 1498,1047 L 1497,1046 L 1497,1043 L 1496,1042 L 1496,1041 L 1495,1040 L 1495,1037 L 1494,1036 L 1494,1034 L 1493,1033 L 1493,1031 L 1492,1030 L 1492,1028 L 1491,1027 L 1491,1025 L 1490,1024 L 1490,1022 L 1489,1021 L 1489,1020 L 1488,1019 L 1488,1017 L 1487,1016 L 1487,1014 L 1486,1013 L 1486,1011 L 1485,1010 L 1485,1009 L 1484,1008 L 1484,1006 L 1483,1005 L 1483,1003 L 1482,1002 L 1482,1001 L 1481,1000 L 1481,998 L 1480,997 L 1480,996 L 1479,995 L 1479,993 L 1478,992 L 1478,991 L 1477,990 L 1477,988 L 1476,987 L 1476,986 L 1475,985 L 1475,984 L 1474,983 L 1474,981 L 1473,980 L 1473,979 L 1472,978 L 1472,976 L 1471,975 L 1471,974 L 1470,973 L 1470,972 L 1469,971 L 1469,970 L 1468,969 L 1468,968 L 1467,967 L 1467,966 L 1466,965 L 1466,963 L 1465,962 L 1465,961 L 1464,960 L 1464,959 L 1463,958 L 1463,957 L 1462,956 L 1462,955 L 1461,954 L 1461,953 L 1460,952 L 1460,951 L 1459,950 L 1459,949 L 1458,948 L 1458,947 L 1457,946 L 1457,945 L 1456,944 L 1456,943 L 1455,942 L 1455,941 L 1454,940 L 1454,939 L 1453,938 L 1453,937 L 1452,936 L 1452,935 L 1451,934 L 1451,933 L 1450,932 L 1450,931 L 1448,929 L 1448,928 L 1447,927 L 1447,926 L 1446,925 L 1446,924 L 1445,923 L 1445,922 L 1444,921 L 1444,920 L 1443,919 L 1443,918 L 1441,916 L 1441,915 L 1440,914 L 1440,913 L 1438,911 L 1438,910 L 1437,909 L 1437,908 L 1435,906 L 1435,904 L 1433,902 L 1433,901 L 1431,899 L 1431,898 L 1430,897 L 1430,896 L 1428,894 L 1428,893 L 1426,891 L 1426,890 L 1424,888 L 1424,887 L 1423,886 L 1423,885 L 1420,882 L 1420,881 L 1419,880 L 1419,879 L 1416,876 L 1416,875 L 1414,873 L 1414,872 L 1413,871 L 1413,870 L 1410,867 L 1410,866 L 1408,864 L 1408,863 L 1405,860 L 1405,859 L 1403,857 L 1403,856 L 1399,852 L 1399,851 L 1397,849 L 1397,848 L 1394,845 L 1394,844 L 1390,840 L 1390,839 L 1387,836 L 1387,835 L 1383,831 L 1383,830 L 1382,830 L 1381,829 L 1381,828 L 1378,825 L 1378,824 L 1372,818 L 1372,817 L 1365,810 L 1365,809 L 1358,802 L 1358,801 L 1357,801 L 1355,799 L 1355,798 L 1314,757 L 1313,757 L 1303,747 L 1302,747 L 1295,740 L 1294,740 L 1289,735 L 1288,735 L 1284,731 L 1283,731 L 1278,726 L 1277,726 L 1273,722 L 1272,722 L 1269,719 L 1268,719 L 1264,715 L 1263,715 L 1261,713 L 1260,713 L 1257,710 L 1256,710 L 1253,707 L 1252,707 L 1249,704 L 1248,704 L 1246,702 L 1245,702 L 1243,700 L 1242,700 L 1239,697 L 1238,697 L 1236,695 L 1235,695 L 1233,693 L 1232,693 L 1230,691 L 1229,691 L 1227,689 L 1226,689 L 1224,687 L 1223,687 L 1222,686 L 1221,686 L 1219,684 L 1218,684 L 1216,682 L 1215,682 L 1213,680 L 1212,680 L 1211,679 L 1210,679 L 1208,677 L 1207,677 L 1206,676 L 1205,676 L 1204,675 L 1203,675 L 1201,673 L 1200,673 L 1199,672 L 1198,672 L 1196,670 L 1195,670 L 1194,669 L 1193,669 L 1192,668 L 1191,668 L 1189,666 L 1188,666 L 1187,665 L 1186,665 L 1185,664 L 1184,664 L 1182,662 L 1181,662 L 1180,661 L 1179,661 L 1178,660 L 1177,660 L 1176,659 L 1175,659 L 1174,658 L 1173,658 L 1172,657 L 1171,657 L 1170,656 L 1169,656 L 1168,655 L 1167,655 L 1166,654 L 1165,654 L 1164,653 L 1163,653 L 1162,652 L 1161,652 L 1160,651 L 1159,651 L 1158,650 L 1157,650 L 1156,649 L 1155,649 L 1154,648 L 1153,648 L 1152,647 L 1151,647 L 1150,646 L 1148,646 L 1146,644 L 1144,644 L 1143,643 L 1142,643 L 1141,642 L 1140,642 L 1139,641 L 1138,641 L 1137,640 L 1135,640 L 1134,639 L 1133,639 L 1132,638 L 1131,638 L 1130,637 L 1128,637 L 1127,636 L 1126,636 L 1125,635 L 1124,635 L 1123,634 L 1121,634 L 1120,633 L 1119,633 L 1118,632 L 1116,632 L 1115,631 L 1114,631 L 1113,630 L 1111,630 L 1110,629 L 1109,629 L 1108,628 L 1106,628 L 1105,627 L 1104,627 L 1103,626 L 1101,626 L 1100,625 L 1098,625 L 1097,624 L 1096,624 L 1095,623 L 1092,623 L 1091,622 L 1090,622 L 1089,621 L 1087,621 L 1086,620 L 1084,620 L 1083,619 L 1080,619 L 1079,618 L 1078,618 L 1077,617 L 1074,617 L 1073,616 L 1072,616 L 1071,615 L 1069,615 L 1068,614 L 1065,614 L 1064,613 L 1062,613 L 1061,612 L 1058,612 L 1057,611 L 1055,611 L 1054,610 L 1051,610 L 1050,609 L 1048,609 L 1047,608 L 1044,608 L 1043,607 L 1041,607 L 1040,606 L 1037,606 L 1036,605 L 1033,605 L 1032,604 L 1029,604 L 1028,603 L 1024,603 L 1023,602 L 1021,602 L 1020,601 L 1015,601 L 1014,600 L 1012,600 L 1011,599 L 1007,599 L 1006,598 L 1002,598 L 1001,597 L 997,597 L 996,596 L 992,596 L 991,595 L 987,595 L 986,594 L 980,594 L 979,593 L 976,593 L 975,592 L 967,592 L 966,591 L 963,591 L 962,590 L 955,590 L 954,589 L 947,589 L 946,588 L 939,588 L 938,587 L 929,587 L 928,586 L 921,586 L 920,585 L 905,585 L 904,584 L 894,584 L 893,583 L 869,583 L 868,582 L 867,582 L 866,583 L 856,583 L 855,582 L 854,583 L 852,583 L 851,582 L 837,582 L 836,583 L 835,582 L 834,583 L 824,583 L 823,582 L 822,583 L 820,583 Z" fill="#fff" /><path d="M 882,86 L 881,87 L 823,87 L 822,88 L 784,88 L 783,89 L 779,89 L 778,88 L 777,89 L 766,89 L 765,90 L 751,90 L 750,91 L 741,91 L 740,92 L 730,92 L 729,93 L 721,93 L 720,94 L 715,94 L 714,95 L 705,95 L 704,96 L 700,96 L 699,97 L 691,97 L 690,98 L 687,98 L 686,99 L 680,99 L 679,100 L 674,100 L 673,101 L 669,101 L 668,102 L 663,102 L 662,103 L 659,103 L 658,104 L 653,104 L 652,105 L 649,105 L 648,106 L 643,106 L 642,107 L 640,107 L 639,108 L 635,108 L 634,109 L 631,109 L 630,110 L 626,110 L 625,111 L 622,111 L 621,112 L 619,112 L 618,113 L 615,113 L 614,114 L 612,114 L 611,115 L 607,115 L 606,116 L 604,116 L 603,117 L 600,117 L 599,118 L 597,118 L 596,119 L 593,119 L 592,120 L 590,120 L 589,121 L 587,121 L 586,122 L 584,122 L 583,123 L 581,123 L 580,124 L 577,124 L 576,125 L 575,125 L 574,126 L 571,126 L 570,127 L 568,127 L 567,128 L 565,128 L 564,129 L 562,129 L 561,130 L 560,130 L 559,131 L 557,131 L 556,132 L 554,132 L 553,133 L 551,133 L 550,134 L 549,134 L 548,135 L 546,135 L 545,136 L 543,136 L 542,137 L 541,137 L 540,138 L 538,138 L 537,139 L 535,139 L 534,140 L 532,140 L 530,142 L 528,142 L 527,143 L 526,143 L 525,144 L 523,144 L 522,145 L 521,145 L 520,146 L 518,146 L 517,147 L 516,147 L 515,148 L 514,148 L 513,149 L 512,149 L 511,150 L 509,150 L 508,151 L 507,151 L 506,152 L 505,152 L 504,153 L 502,153 L 500,155 L 498,155 L 497,156 L 496,156 L 495,157 L 494,157 L 493,158 L 492,158 L 491,159 L 490,159 L 489,160 L 488,160 L 487,161 L 486,161 L 485,162 L 484,162 L 483,163 L 482,163 L 481,164 L 480,164 L 479,165 L 478,165 L 477,166 L 476,166 L 475,167 L 474,167 L 473,168 L 472,168 L 471,169 L 470,169 L 468,171 L 466,171 L 464,173 L 462,173 L 460,175 L 459,175 L 458,176 L 457,176 L 455,178 L 454,178 L 453,179 L 452,179 L 451,180 L 450,180 L 448,182 L 447,182 L 446,183 L 445,183 L 444,184 L 443,184 L 441,186 L 440,186 L 439,187 L 438,187 L 436,189 L 435,189 L 433,191 L 432,191 L 431,192 L 430,192 L 429,193 L 428,193 L 426,195 L 425,195 L 423,197 L 422,197 L 421,198 L 420,198 L 417,201 L 416,201 L 414,203 L 413,203 L 411,205 L 410,205 L 408,207 L 407,207 L 405,209 L 404,209 L 402,211 L 401,211 L 399,213 L 398,213 L 395,216 L 394,216 L 391,219 L 390,219 L 387,222 L 386,222 L 383,225 L 382,225 L 380,227 L 379,227 L 375,231 L 374,231 L 371,234 L 370,234 L 370,235 L 369,236 L 368,236 L 366,238 L 365,238 L 360,243 L 359,243 L 359,244 L 358,245 L 357,245 L 354,248 L 353,248 L 347,254 L 346,254 L 337,263 L 336,263 L 327,272 L 326,272 L 326,273 L 325,274 L 324,274 L 324,275 L 322,277 L 321,277 L 301,297 L 301,298 L 300,299 L 299,299 L 299,300 L 298,301 L 297,301 L 297,302 L 288,311 L 288,312 L 279,321 L 279,322 L 273,328 L 273,329 L 267,335 L 267,336 L 263,340 L 263,341 L 258,346 L 258,347 L 254,351 L 254,352 L 251,355 L 251,356 L 247,360 L 247,361 L 245,363 L 245,364 L 242,367 L 242,368 L 239,371 L 239,372 L 236,375 L 236,376 L 234,378 L 234,379 L 231,382 L 231,383 L 229,385 L 229,386 L 227,388 L 227,389 L 224,392 L 224,393 L 222,395 L 222,396 L 220,398 L 220,399 L 218,401 L 218,402 L 216,404 L 216,405 L 214,407 L 214,408 L 212,410 L 212,411 L 210,413 L 210,414 L 209,415 L 209,416 L 207,418 L 207,419 L 205,421 L 205,422 L 203,424 L 203,425 L 202,426 L 202,427 L 200,429 L 200,430 L 198,432 L 198,434 L 196,436 L 196,437 L 194,439 L 194,440 L 193,441 L 193,442 L 191,444 L 191,445 L 189,447 L 189,449 L 187,451 L 187,452 L 185,454 L 185,455 L 184,456 L 184,457 L 183,458 L 183,459 L 182,460 L 182,461 L 180,463 L 180,464 L 179,465 L 179,466 L 178,467 L 178,468 L 177,469 L 177,470 L 176,471 L 176,472 L 174,474 L 174,475 L 173,476 L 173,477 L 172,478 L 172,479 L 171,480 L 171,481 L 170,482 L 170,483 L 169,484 L 169,485 L 168,486 L 168,487 L 167,488 L 167,489 L 166,490 L 166,491 L 165,492 L 165,493 L 164,494 L 164,495 L 163,496 L 163,497 L 162,498 L 162,499 L 160,501 L 160,503 L 159,504 L 159,505 L 158,506 L 158,507 L 157,508 L 157,509 L 156,510 L 156,511 L 155,512 L 155,514 L 154,515 L 154,516 L 153,517 L 153,518 L 152,519 L 152,520 L 151,521 L 151,522 L 150,523 L 150,524 L 149,525 L 149,527 L 148,528 L 148,529 L 147,530 L 147,531 L 146,532 L 146,534 L 145,535 L 145,536 L 144,537 L 144,538 L 143,539 L 143,540 L 142,541 L 142,543 L 141,544 L 141,545 L 140,546 L 140,548 L 139,549 L 139,550 L 138,551 L 138,553 L 137,554 L 137,556 L 136,557 L 136,558 L 135,559 L 135,561 L 134,562 L 134,563 L 133,564 L 133,566 L 132,567 L 132,568 L 131,569 L 131,571 L 130,572 L 130,574 L 129,575 L 129,576 L 128,577 L 128,580 L 127,581 L 127,582 L 126,583 L 126,585 L 125,586 L 125,588 L 124,589 L 124,591 L 123,592 L 123,594 L 122,595 L 122,597 L 121,598 L 121,600 L 120,601 L 120,603 L 119,604 L 119,606 L 118,607 L 118,609 L 117,610 L 117,613 L 116,614 L 116,616 L 115,617 L 115,620 L 114,621 L 114,623 L 113,624 L 113,627 L 112,628 L 112,630 L 111,631 L 111,634 L 110,635 L 110,638 L 109,639 L 109,641 L 108,642 L 108,645 L 107,646 L 107,649 L 106,650 L 106,654 L 105,655 L 105,657 L 104,658 L 104,663 L 103,664 L 103,666 L 102,667 L 102,671 L 101,672 L 101,676 L 100,677 L 100,681 L 99,682 L 99,686 L 98,687 L 98,690 L 97,691 L 97,697 L 96,698 L 96,702 L 95,703 L 95,710 L 94,711 L 94,715 L 93,716 L 93,722 L 92,723 L 92,730 L 91,731 L 91,738 L 90,739 L 90,749 L 89,750 L 89,756 L 88,757 L 88,775 L 87,776 L 87,790 L 86,791 L 86,837 L 87,838 L 87,853 L 88,854 L 88,871 L 89,872 L 89,879 L 90,880 L 90,889 L 91,890 L 91,898 L 92,899 L 92,905 L 93,906 L 93,912 L 94,913 L 94,917 L 95,918 L 95,925 L 96,926 L 96,930 L 97,931 L 97,936 L 98,937 L 98,941 L 99,942 L 99,946 L 100,947 L 100,950 L 101,951 L 101,955 L 102,956 L 102,960 L 103,961 L 103,963 L 104,964 L 104,968 L 105,969 L 105,971 L 106,972 L 106,976 L 107,977 L 107,979 L 108,980 L 108,984 L 109,985 L 109,987 L 110,988 L 110,991 L 111,992 L 111,995 L 112,996 L 112,997 L 113,998 L 113,1001 L 114,1002 L 114,1004 L 115,1005 L 115,1008 L 116,1009 L 116,1011 L 117,1012 L 117,1014 L 118,1015 L 118,1017 L 119,1018 L 119,1020 L 120,1021 L 120,1023 L 121,1024 L 121,1025 L 122,1026 L 122,1029 L 123,1030 L 123,1031 L 124,1032 L 124,1034 L 125,1035 L 125,1037 L 126,1038 L 126,1040 L 127,1041 L 127,1042 L 128,1043 L 128,1045 L 129,1046 L 129,1048 L 130,1049 L 130,1050 L 131,1051 L 131,1053 L 132,1054 L 132,1055 L 133,1056 L 133,1058 L 134,1059 L 134,1060 L 135,1061 L 135,1063 L 136,1064 L 136,1065 L 137,1066 L 137,1067 L 138,1068 L 138,1070 L 139,1071 L 139,1072 L 140,1073 L 140,1074 L 141,1075 L 141,1076 L 142,1077 L 142,1079 L 144,1081 L 144,1083 L 145,1084 L 145,1085 L 146,1086 L 146,1088 L 148,1090 L 148,1091 L 149,1092 L 149,1094 L 150,1095 L 150,1096 L 151,1097 L 151,1098 L 152,1099 L 152,1100 L 153,1101 L 153,1102 L 154,1103 L 154,1104 L 155,1105 L 155,1106 L 156,1107 L 156,1108 L 158,1110 L 158,1111 L 159,1112 L 159,1113 L 160,1114 L 160,1115 L 161,1116 L 161,1117 L 162,1118 L 162,1119 L 163,1120 L 163,1121 L 164,1122 L 164,1123 L 165,1124 L 165,1125 L 166,1126 L 166,1127 L 168,1129 L 168,1130 L 169,1131 L 169,1132 L 171,1134 L 171,1135 L 172,1136 L 172,1137 L 173,1138 L 173,1139 L 174,1140 L 174,1141 L 176,1143 L 176,1144 L 178,1146 L 178,1147 L 180,1149 L 180,1150 L 181,1151 L 181,1152 L 183,1154 L 183,1155 L 184,1156 L 184,1157 L 186,1159 L 186,1160 L 188,1162 L 188,1163 L 189,1164 L 189,1165 L 191,1167 L 191,1168 L 194,1171 L 194,1172 L 195,1173 L 195,1174 L 198,1177 L 198,1178 L 200,1180 L 200,1181 L 202,1183 L 202,1184 L 205,1187 L 205,1188 L 208,1191 L 208,1192 L 211,1195 L 211,1196 L 214,1199 L 214,1200 L 216,1202 L 216,1203 L 220,1207 L 220,1208 L 223,1211 L 223,1212 L 228,1217 L 228,1218 L 233,1223 L 233,1224 L 239,1230 L 239,1231 L 246,1238 L 246,1239 L 257,1250 L 257,1251 L 287,1281 L 288,1281 L 297,1290 L 298,1290 L 305,1297 L 306,1297 L 312,1303 L 313,1303 L 318,1308 L 319,1308 L 323,1312 L 324,1312 L 328,1316 L 329,1316 L 333,1320 L 334,1320 L 337,1323 L 338,1323 L 340,1325 L 341,1325 L 345,1329 L 346,1329 L 348,1331 L 349,1331 L 352,1334 L 353,1334 L 355,1336 L 356,1336 L 359,1339 L 360,1339 L 362,1341 L 363,1341 L 365,1343 L 366,1343 L 368,1345 L 369,1345 L 371,1347 L 372,1347 L 374,1349 L 375,1349 L 377,1351 L 378,1351 L 379,1352 L 380,1352 L 382,1354 L 383,1354 L 385,1356 L 386,1356 L 388,1358 L 389,1358 L 391,1360 L 392,1360 L 393,1361 L 394,1361 L 395,1362 L 396,1362 L 398,1364 L 399,1364 L 401,1366 L 402,1366 L 403,1367 L 404,1367 L 405,1368 L 406,1368 L 408,1370 L 409,1370 L 410,1371 L 411,1371 L 412,1372 L 413,1372 L 415,1374 L 416,1374 L 417,1375 L 418,1375 L 419,1376 L 420,1376 L 421,1377 L 422,1377 L 424,1379 L 425,1379 L 426,1380 L 427,1380 L 428,1381 L 429,1381 L 430,1382 L 431,1382 L 432,1383 L 433,1383 L 434,1384 L 435,1384 L 436,1385 L 437,1385 L 438,1386 L 439,1386 L 440,1387 L 441,1387 L 442,1388 L 443,1388 L 444,1389 L 445,1389 L 446,1390 L 447,1390 L 448,1391 L 449,1391 L 450,1392 L 451,1392 L 452,1393 L 453,1393 L 454,1394 L 455,1394 L 456,1395 L 457,1395 L 458,1396 L 459,1396 L 460,1397 L 461,1397 L 462,1398 L 463,1398 L 464,1399 L 466,1399 L 467,1400 L 468,1400 L 469,1401 L 470,1401 L 471,1402 L 472,1402 L 473,1403 L 475,1403 L 476,1404 L 477,1404 L 478,1405 L 479,1405 L 480,1406 L 482,1406 L 483,1407 L 484,1407 L 485,1408 L 486,1408 L 487,1409 L 488,1409 L 489,1410 L 491,1410 L 492,1411 L 493,1411 L 494,1412 L 496,1412 L 497,1413 L 498,1413 L 499,1414 L 500,1414 L 501,1415 L 503,1415 L 504,1416 L 506,1416 L 507,1417 L 509,1417 L 510,1418 L 511,1418 L 512,1419 L 514,1419 L 515,1420 L 516,1420 L 517,1421 L 519,1421 L 520,1422 L 522,1422 L 523,1423 L 524,1423 L 525,1424 L 527,1424 L 528,1425 L 530,1425 L 531,1426 L 533,1426 L 534,1427 L 535,1427 L 536,1428 L 539,1428 L 540,1429 L 541,1429 L 542,1430 L 544,1430 L 545,1431 L 547,1431 L 548,1432 L 550,1432 L 551,1433 L 553,1433 L 554,1434 L 556,1434 L 557,1435 L 560,1435 L 561,1436 L 562,1436 L 563,1437 L 566,1437 L 567,1438 L 569,1438 L 570,1439 L 573,1439 L 574,1440 L 576,1440 L 577,1441 L 580,1441 L 581,1442 L 583,1442 L 584,1443 L 586,1443 L 587,1444 L 591,1444 L 592,1445 L 593,1445 L 594,1446 L 598,1446 L 599,1447 L 602,1447 L 603,1448 L 606,1448 L 607,1449 L 610,1449 L 611,1450 L 613,1450 L 614,1451 L 619,1451 L 620,1452 L 622,1452 L 623,1453 L 628,1453 L 629,1454 L 631,1454 L 632,1455 L 637,1455 L 638,1456 L 642,1456 L 643,1457 L 647,1457 L 648,1458 L 653,1458 L 654,1459 L 657,1459 L 658,1460 L 665,1460 L 666,1461 L 670,1461 L 671,1462 L 679,1462 L 680,1463 L 685,1463 L 686,1464 L 694,1464 L 695,1465 L 703,1465 L 704,1466 L 716,1466 L 717,1467 L 733,1467 L 734,1468 L 787,1468 L 788,1467 L 804,1467 L 805,1466 L 816,1466 L 817,1465 L 825,1465 L 826,1464 L 834,1464 L 835,1463 L 839,1463 L 840,1462 L 848,1462 L 849,1461 L 852,1461 L 853,1460 L 860,1460 L 861,1459 L 864,1459 L 865,1458 L 870,1458 L 871,1457 L 875,1457 L 876,1456 L 879,1456 L 880,1455 L 884,1455 L 885,1454 L 888,1454 L 889,1453 L 893,1453 L 894,1452 L 896,1452 L 897,1451 L 900,1451 L 901,1450 L 903,1450 L 904,1449 L 906,1449 L 907,1448 L 909,1448 L 910,1447 L 911,1447 L 912,1446 L 915,1446 L 916,1445 L 917,1445 L 918,1444 L 919,1444 L 920,1443 L 921,1443 L 922,1442 L 924,1442 L 925,1441 L 926,1441 L 927,1440 L 928,1440 L 929,1439 L 930,1439 L 931,1438 L 932,1438 L 934,1436 L 935,1436 L 936,1435 L 937,1435 L 939,1433 L 940,1433 L 941,1432 L 942,1432 L 945,1429 L 946,1429 L 947,1428 L 948,1428 L 951,1425 L 952,1425 L 955,1422 L 956,1422 L 962,1416 L 963,1416 L 975,1404 L 975,1403 L 980,1398 L 980,1397 L 984,1393 L 984,1392 L 987,1389 L 987,1388 L 989,1386 L 989,1385 L 991,1383 L 991,1382 L 992,1381 L 992,1380 L 994,1378 L 994,1377 L 995,1376 L 995,1375 L 996,1374 L 996,1373 L 998,1371 L 998,1369 L 1000,1367 L 1000,1365 L 1001,1364 L 1001,1363 L 1002,1362 L 1002,1361 L 1003,1360 L 1003,1358 L 1004,1357 L 1004,1356 L 1005,1355 L 1005,1353 L 1006,1352 L 1006,1351 L 1007,1350 L 1007,1347 L 1008,1346 L 1008,1344 L 1009,1343 L 1009,1340 L 1010,1339 L 1010,1337 L 1011,1336 L 1011,1331 L 1012,1330 L 1012,1326 L 1013,1325 L 1013,1317 L 1014,1316 L 1014,1296 L 1013,1295 L 1013,1286 L 1012,1285 L 1012,1279 L 1011,1278 L 1011,1273 L 1010,1272 L 1010,1270 L 1009,1269 L 1009,1264 L 1008,1263 L 1008,1261 L 1007,1260 L 1007,1256 L 1006,1255 L 1006,1254 L 1005,1253 L 1005,1250 L 1004,1249 L 1004,1248 L 1003,1247 L 1003,1246 L 1002,1245 L 1002,1242 L 1000,1240 L 1000,1238 L 999,1237 L 999,1236 L 998,1235 L 998,1233 L 997,1232 L 997,1231 L 996,1230 L 996,1229 L 995,1228 L 995,1227 L 994,1226 L 994,1225 L 992,1223 L 992,1222 L 991,1221 L 991,1220 L 989,1218 L 989,1216 L 986,1213 L 986,1212 L 984,1210 L 984,1209 L 982,1207 L 982,1206 L 981,1206 L 980,1205 L 980,1204 L 978,1202 L 978,1201 L 975,1198 L 975,1197 L 974,1197 L 973,1196 L 973,1195 L 972,1195 L 971,1194 L 971,1193 L 966,1188 L 965,1188 L 964,1187 L 964,1186 L 963,1186 L 962,1185 L 962,1184 L 961,1184 L 956,1179 L 955,1179 L 953,1177 L 952,1177 L 948,1173 L 947,1173 L 946,1172 L 945,1172 L 942,1169 L 941,1169 L 940,1168 L 939,1168 L 937,1166 L 935,1166 L 933,1164 L 932,1164 L 931,1163 L 930,1163 L 929,1162 L 928,1162 L 927,1161 L 925,1161 L 923,1159 L 920,1159 L 918,1157 L 916,1157 L 915,1156 L 913,1156 L 912,1155 L 910,1155 L 909,1154 L 907,1154 L 906,1153 L 905,1153 L 904,1152 L 900,1152 L 899,1151 L 897,1151 L 896,1150 L 891,1150 L 890,1149 L 888,1149 L 887,1148 L 879,1148 L 878,1147 L 873,1147 L 872,1146 L 856,1146 L 855,1145 L 843,1145 L 842,1144 L 822,1144 L 821,1143 L 771,1143 L 770,1142 L 758,1142 L 757,1141 L 740,1141 L 739,1140 L 734,1140 L 733,1139 L 723,1139 L 722,1138 L 718,1138 L 717,1137 L 710,1137 L 709,1136 L 705,1136 L 704,1135 L 701,1135 L 700,1134 L 693,1134 L 692,1133 L 689,1133 L 688,1132 L 681,1132 L 680,1131 L 676,1131 L 675,1130 L 669,1130 L 668,1129 L 665,1129 L 664,1128 L 659,1128 L 658,1127 L 654,1127 L 653,1126 L 650,1126 L 649,1125 L 645,1125 L 644,1124 L 641,1124 L 640,1123 L 635,1123 L 634,1122 L 632,1122 L 631,1121 L 627,1121 L 626,1120 L 624,1120 L 623,1119 L 618,1119 L 617,1118 L 616,1118 L 615,1117 L 613,1117 L 612,1116 L 609,1116 L 608,1115 L 606,1115 L 605,1114 L 602,1114 L 601,1113 L 600,1113 L 599,1112 L 596,1112 L 595,1111 L 594,1111 L 593,1110 L 590,1110 L 589,1109 L 588,1109 L 587,1108 L 586,1108 L 585,1107 L 583,1107 L 582,1106 L 581,1106 L 580,1105 L 578,1105 L 577,1104 L 576,1104 L 575,1103 L 573,1103 L 572,1102 L 571,1102 L 570,1101 L 569,1101 L 568,1100 L 567,1100 L 566,1099 L 565,1099 L 564,1098 L 563,1098 L 562,1097 L 561,1097 L 560,1096 L 559,1096 L 558,1095 L 557,1095 L 556,1094 L 555,1094 L 553,1092 L 551,1092 L 549,1090 L 548,1090 L 546,1088 L 545,1088 L 543,1086 L 542,1086 L 541,1085 L 540,1085 L 538,1083 L 537,1083 L 535,1081 L 534,1081 L 531,1078 L 530,1078 L 528,1076 L 527,1076 L 525,1074 L 524,1074 L 520,1070 L 519,1070 L 516,1067 L 515,1067 L 509,1061 L 508,1061 L 501,1054 L 500,1054 L 485,1039 L 485,1038 L 479,1032 L 479,1031 L 472,1024 L 472,1023 L 469,1020 L 469,1019 L 465,1015 L 465,1014 L 463,1012 L 463,1011 L 460,1008 L 460,1007 L 458,1005 L 458,1004 L 457,1003 L 457,1002 L 454,999 L 454,998 L 453,997 L 453,996 L 450,993 L 450,992 L 449,991 L 449,990 L 447,988 L 447,987 L 446,986 L 446,985 L 444,983 L 444,982 L 443,981 L 443,980 L 442,979 L 442,978 L 441,977 L 441,976 L 440,975 L 440,974 L 438,972 L 438,970 L 436,968 L 436,967 L 435,966 L 435,964 L 433,962 L 433,960 L 432,959 L 432,958 L 431,957 L 431,956 L 430,955 L 430,954 L 429,953 L 429,951 L 428,950 L 428,949 L 426,947 L 426,944 L 425,943 L 425,942 L 424,941 L 424,939 L 423,938 L 423,937 L 422,936 L 422,934 L 421,933 L 421,932 L 420,931 L 420,928 L 419,927 L 419,926 L 418,925 L 418,923 L 417,922 L 417,920 L 416,919 L 416,917 L 415,916 L 415,913 L 414,912 L 414,910 L 413,909 L 413,906 L 412,905 L 412,904 L 411,903 L 411,898 L 410,897 L 410,895 L 409,894 L 409,891 L 408,890 L 408,887 L 407,886 L 407,883 L 406,882 L 406,877 L 405,876 L 405,873 L 404,872 L 404,866 L 403,865 L 403,861 L 402,860 L 402,852 L 401,851 L 401,845 L 400,844 L 400,834 L 399,833 L 399,820 L 398,819 L 398,781 L 399,780 L 399,766 L 400,765 L 400,756 L 401,755 L 401,749 L 402,748 L 402,740 L 403,739 L 403,736 L 404,735 L 404,728 L 405,727 L 405,724 L 406,723 L 406,717 L 407,716 L 407,714 L 408,713 L 408,709 L 409,708 L 409,705 L 410,704 L 410,702 L 411,701 L 411,697 L 412,696 L 412,694 L 413,693 L 413,689 L 414,688 L 414,687 L 415,686 L 415,683 L 416,682 L 416,680 L 417,679 L 417,677 L 418,676 L 418,674 L 419,673 L 419,671 L 420,670 L 420,667 L 422,665 L 422,662 L 423,661 L 423,660 L 424,659 L 424,656 L 426,654 L 426,652 L 427,651 L 427,649 L 428,648 L 428,647 L 429,646 L 429,645 L 430,644 L 430,643 L 431,642 L 431,640 L 432,639 L 432,638 L 433,637 L 433,635 L 434,634 L 434,633 L 435,632 L 435,631 L 436,630 L 436,629 L 437,628 L 437,627 L 438,626 L 438,625 L 439,624 L 439,623 L 440,622 L 440,621 L 441,620 L 441,619 L 442,618 L 442,617 L 443,616 L 443,615 L 444,614 L 444,613 L 445,612 L 445,611 L 447,609 L 447,608 L 448,607 L 448,606 L 449,605 L 449,604 L 451,602 L 451,601 L 452,600 L 452,599 L 454,597 L 454,596 L 455,595 L 455,594 L 457,592 L 457,591 L 458,590 L 458,589 L 461,586 L 461,585 L 462,584 L 462,583 L 464,581 L 464,580 L 467,577 L 467,576 L 469,574 L 469,573 L 472,570 L 472,569 L 474,567 L 474,566 L 479,561 L 479,560 L 482,557 L 482,556 L 489,549 L 489,548 L 494,543 L 494,542 L 517,519 L 518,519 L 523,514 L 524,514 L 531,507 L 532,507 L 535,504 L 536,504 L 540,500 L 541,500 L 544,497 L 545,497 L 548,494 L 549,494 L 552,491 L 553,491 L 555,489 L 556,489 L 558,487 L 559,487 L 561,485 L 562,485 L 564,483 L 565,483 L 566,482 L 567,482 L 569,480 L 570,480 L 572,478 L 573,478 L 575,476 L 576,476 L 577,475 L 578,475 L 579,474 L 580,474 L 582,472 L 583,472 L 584,471 L 585,471 L 586,470 L 587,470 L 588,469 L 589,469 L 591,467 L 593,467 L 595,465 L 597,465 L 599,463 L 600,463 L 601,462 L 603,462 L 605,460 L 607,460 L 608,459 L 609,459 L 610,458 L 611,458 L 612,457 L 613,457 L 614,456 L 616,456 L 617,455 L 618,455 L 619,454 L 620,454 L 621,453 L 623,453 L 624,452 L 625,452 L 626,451 L 628,451 L 629,450 L 630,450 L 631,449 L 634,449 L 635,448 L 636,448 L 637,447 L 639,447 L 640,446 L 641,446 L 642,445 L 644,445 L 645,444 L 648,444 L 649,443 L 650,443 L 651,442 L 654,442 L 655,441 L 656,441 L 657,440 L 661,440 L 662,439 L 664,439 L 665,438 L 667,438 L 668,437 L 671,437 L 672,436 L 675,436 L 676,435 L 679,435 L 680,434 L 682,434 L 683,433 L 688,433 L 689,432 L 691,432 L 692,431 L 698,431 L 699,430 L 702,430 L 703,429 L 710,429 L 711,428 L 714,428 L 715,427 L 720,427 L 721,426 L 728,426 L 729,425 L 734,425 L 735,424 L 746,424 L 747,423 L 755,423 L 756,422 L 777,422 L 778,421 L 823,421 L 824,420 L 1311,420 L 1311,87 L 1168,87 L 1167,86 Z" fill="#fff" /></svg>