<svg width="732" height="382" viewBox="0 0 732 382" fill="none" xmlns="http://www.w3.org/2000/svg">
<path d="M98.8239 73.4315C77.2623 74.9158 59.3724 82.4933 44.998 96.164C11.4839 128.036 4.84351 177.564 29.2956 212.092C33.7485 218.42 44.8418 228.888 51.6384 233.262C67.8096 243.73 91.4804 249.355 108.667 246.933C119.37 245.371 125.385 241.777 129.135 234.746C131.791 229.825 131.479 221.232 128.51 215.764C126.401 211.858 122.338 208.264 118.354 206.624C117.495 206.311 111.87 205.764 105.855 205.374C91.9492 204.593 79.9966 202.171 73.9812 199.046C65.3878 194.437 58.5912 185.141 55.7788 174.048C53.9039 166.783 54.607 153.737 57.2631 146.707C62.7317 132.489 73.6687 122.49 88.6681 118.193C92.7304 117.022 98.277 116.865 130.698 116.553L167.962 116.319L167.805 94.6798L167.571 73.0409L137.494 72.9628C120.932 72.8847 103.589 73.119 98.8239 73.4315Z" fill="black"/>
<path d="M93.1209 136.395C83.6682 138.895 78.1997 145.379 77.4966 154.753C77.0279 161.471 78.5122 165.846 82.887 170.221C88.1993 175.454 92.5741 176.626 109.761 177.329C129.135 178.189 133.197 179.439 141.088 186.86C149.759 195.062 153.04 202.796 153.665 216.389C153.978 223.107 153.743 226.7 152.806 230.762C149.134 246.386 136.4 259.666 121.792 263.182C114.604 264.9 99.9175 265.603 72.1062 265.603H43.748V287.555V309.506L78.3559 309.115C110.308 308.803 113.433 308.647 120.698 307.084C149.29 300.757 174.367 281.305 186.789 255.838C202.101 224.2 196.32 186.079 172.336 161.081C159.212 147.41 145.072 139.754 126.635 136.317C118.276 134.833 98.9019 134.833 93.1209 136.395Z" fill="black"/>
<path d="M225.772 158.893C219.991 160.534 218.194 161.471 214.756 164.596C210.46 168.502 208.585 172.642 208.585 178.501C208.585 189.906 213.819 194.125 234.365 199.202C238.037 200.14 241.787 201.39 242.724 202.015C247.255 204.905 246.396 209.28 240.849 211.389C234.912 213.654 221.944 211.389 215.538 206.936C214.444 206.155 213.194 205.764 212.725 206.077C212.257 206.389 210.772 209.045 209.444 212.014C206.632 218.263 206.788 218.732 212.881 221.544C219.444 224.669 227.178 225.997 236.552 225.685C244.286 225.372 245.38 225.138 250.38 222.638C259.598 218.029 263.582 210.295 261.629 200.921C259.989 192.875 255.536 189.828 239.208 185.375C228.35 182.485 225.537 181.001 225.147 177.876C224.365 171.627 235.927 169.283 247.255 173.423C255.38 176.392 254.833 176.548 257.255 170.142C258.426 167.018 259.364 164.205 259.364 163.893C259.364 162.877 253.27 160.143 248.271 158.971C242.333 157.565 230.537 157.565 225.772 158.893Z" fill="black"/>
<path d="M353.032 159.284C339.36 163.659 331.158 172.798 328.814 186.235C326.939 197.328 330.845 209.124 338.814 216.389C346.86 223.732 353.891 226.075 366.312 225.607C375.531 225.216 382.562 223.263 387.874 219.591L390.999 217.482V203.89V190.219L383.812 189.984L376.546 189.75V199.515V209.28L372.093 210.608C361.313 213.733 350.376 208.967 346.313 199.359C344.595 195.297 344.907 187.25 346.86 183.188C350.063 176.626 357.797 171.861 365.219 171.861C369.203 171.861 375.296 174.048 378.499 176.548C380.14 177.798 381.859 178.892 382.327 178.892C382.796 178.892 385.296 176.782 387.874 174.205L392.483 169.517L389.905 166.861C386.624 163.424 381.156 160.534 375.375 158.971C369.125 157.409 358.578 157.487 353.032 159.284Z" fill="black"/>
<path d="M683.408 159.284C666.612 164.674 657.159 180.22 660.05 197.64C661.925 209.045 668.253 217.482 678.721 222.482C684.736 225.372 684.814 225.372 694.892 225.372C704.657 225.372 705.282 225.294 710.204 222.951C715.438 220.451 721.844 215.373 721.844 213.733C721.844 213.264 720.204 211.233 718.172 209.28C712.001 203.421 712.235 203.499 709.267 206.155C699.345 215.295 684.111 212.717 678.409 201.077C674.581 193.265 675.987 183.422 681.846 177.642C685.674 173.736 689.502 172.252 695.673 172.33C701.611 172.33 705.439 173.736 709.657 177.72C711.766 179.673 711.923 179.751 713.563 178.345C717.704 174.908 721.844 170.689 721.844 169.83C721.844 168.58 716.219 163.658 712.704 161.862C704.423 157.643 692.002 156.55 683.408 159.284Z" fill="black"/>
<path d="M271.082 191.781V224.982H296.472H321.861V218.342V211.701H304.674H287.488V204.671V197.64H302.331H317.174V191.391V185.141H302.331H287.488V178.501V171.861H304.284H321.08V165.221V158.581H296.081H271.082V191.781Z" fill="black"/>
<path d="M403.889 191.781V224.982H429.278H454.668V218.342V211.701H437.091H419.435L419.669 204.827L419.904 198.031L434.981 197.796L449.981 197.64V191.391V185.141L434.981 184.985L419.904 184.751L419.669 178.267L419.435 171.861H436.7H453.965L453.731 165.377L453.496 158.971L428.732 158.737L403.889 158.581V191.781Z" fill="black"/>
<path d="M465.605 191.781V224.982H490.995H516.384V218.342V211.701H499.197H482.011V204.671V197.64H496.854H511.697V191.391V185.141H496.854H482.011V178.501V171.861H498.807H515.681L515.447 165.377L515.212 158.971L490.448 158.737L465.605 158.581V191.781Z" fill="black"/>
<path d="M527.321 191.781V224.982H551.539H575.757V217.951V210.92H559.742H543.727L543.571 184.907L543.336 158.971L535.368 158.737L527.321 158.503V191.781Z" fill="black"/>
<path d="M569.507 165.611V172.642H579.663H589.818V198.812V224.982H598.021H606.224V198.812V172.642H616.38H626.536V165.611V158.581H598.021H569.507V165.611Z" fill="black"/>
<path d="M633.567 191.781V225.06L641.613 224.825L649.582 224.591V191.781V158.971L641.613 158.737L633.567 158.503V191.781Z" fill="black"/>
</svg>
